<svg>
    <symbol xmlns="http://www.w3.org/2000/svg" viewBox="0 0 24 24" fill="transparent"
            stroke="currentColor" stroke-width="2" stroke-linecap="round" stroke-linejoin="round"
            class="feather feather-bar-chart" id="wireless">
        <line x1="12" y1="20" x2="12" y2="10"></line>
        <line x1="18" y1="20" x2="18" y2="4"></line>
        <line x1="6" y1="20" x2="6" y2="16"></line>
    </symbol>
    <symbol
            xmlns="http://www.w3.org/2000/svg" viewBox="0 0 24 24" fill="transparent" id="edit"
            stroke="currentColor" stroke-width="2" stroke-linecap="round" stroke-linejoin="round"
            class="feather feather-edit">
        <path d="M11 4H4a2 2 0 0 0-2 2v14a2 2 0 0 0 2 2h14a2 2 0 0 0 2-2v-7"></path>
        <path d="M18.5 2.5a2.121 2.121 0 0 1 3 3L12 15l-4 1 1-4 9.5-9.5z"></path>
    </symbol>
    <symbol
            xmlns="http://www.w3.org/2000/svg" viewBox="0 0 24 24" fill="transparent" id="delete"
            stroke="currentColor" stroke-width="2" stroke-linecap="round" stroke-linejoin="round"
            class="feather feather-delete">
        <path d="M21 4H8l-7 8 7 8h13a2 2 0 0 0 2-2V6a2 2 0 0 0-2-2z"></path>
        <line x1="18" y1="9" x2="12" y2="15"></line>
        <line x1="12" y1="9" x2="18" y2="15"></line>
    </symbol>
    <symbol
            xmlns="http://www.w3.org/2000/svg" viewBox="0 0 24 24" fill="transparent" id="x"
            stroke="currentColor" stroke-width="2" stroke-linecap="round" stroke-linejoin="round"
            class="feather feather-x">
        <line x1="18" y1="6" x2="6" y2="18"></line>
        <line x1="6" y1="6" x2="18" y2="18"></line>
    </symbol>
    <symbol
            xmlns="http://www.w3.org/2000/svg" viewBox="0 0 24 24" fill="transparent" id="trash"
            stroke="currentColor" stroke-width="2" stroke-linecap="round" stroke-linejoin="round"
            class="feather feather-trash">
        <polyline points="3 6 5 6 21 6"></polyline>
        <path d="M19 6v14a2 2 0 0 1-2 2H7a2 2 0 0 1-2-2V6m3 0V4a2 2 0 0 1 2-2h4a2 2 0 0 1 2 2v2"></path>
    </symbol>
    <symbol
            xmlns="http://www.w3.org/2000/svg" viewBox="0 0 24 24" fill="transparent" id="logout"
            stroke="currentColor" stroke-width="2" stroke-linecap="round" stroke-linejoin="round"
            class="feather feather-log-out">
        <path d="M9 21H5a2 2 0 0 1-2-2V5a2 2 0 0 1 2-2h4"></path>
        <polyline points="16 17 21 12 16 7"></polyline>
        <line x1="21" y1="12" x2="9" y2="12"></line>
    </symbol>
    <symbol xmlns="http://www.w3.org/2000/svg" viewBox="0 0 24 24" fill="transparent" id="user"
            stroke="currentColor" stroke-width="2" stroke-linecap="round" stroke-linejoin="round"
            class="feather feather-user">
        <path d="M20 21v-2a4 4 0 0 0-4-4H8a4 4 0 0 0-4 4v2"></path>
        <circle cx="12" cy="7" r="4"></circle>
    </symbol>
    <symbol xmlns="http://www.w3.org/2000/svg" viewBox="0 0 24 24" fill="transparent" id="ebuy2"
            stroke="currentColor" stroke-width="2" stroke-linecap="round" stroke-linejoin="round"
            class="feather feather-shopping-bag">
        <path d="M6 2L3 6v14a2 2 0 0 0 2 2h14a2 2 0 0 0 2-2V6l-3-4z"></path>
        <line x1="3" y1="6" x2="21" y2="6"></line>
        <path d="M16 10a4 4 0 0 1-8 0"></path>
    </symbol>
    <symbol fill="none" id="ebuy" viewBox="0 0 36 36" version="1.1"
            preserveAspectRatio="xMidYMid meet" xmlns="http://www.w3.org/2000/svg"
            xmlns:xlink="http://www.w3.org/1999/xlink">
        <title>shopping-cart-line</title>
        <circle cx="13.33" cy="29.75" r="2.25" class="clr-i-outline clr-i-outline-path-1"></circle>
        <circle cx="27" cy="29.75" r="2.25" class="clr-i-outline clr-i-outline-path-2"></circle>
        <path
                d="M33.08,5.37A1,1,0,0,0,32.31,5H11.49l.65,2H31L28.33,19h-15L8.76,4.53a1,1,0,0,0-.66-.65L4,2.62a1,1,0,1,0-.59,1.92L7,5.64l4.59,14.5L9.95,21.48l-.13.13A2.66,2.66,0,0,0,9.74,25,2.75,2.75,0,0,0,12,26H28.69a1,1,0,0,0,0-2H11.84a.67.67,0,0,1-.56-1l2.41-2H29.13a1,1,0,0,0,1-.78l3.17-14A1,1,0,0,0,33.08,5.37Z"
                class="clr-i-outline clr-i-outline-path-3"></path>
        <rect x="0" y="0" width="36" height="36" fill-opacity="0"/>
    </symbol>
    <symbol xmlns="http://www.w3.org/2000/svg" viewBox="0 0 24 24" fill="transparent" id="search"
            stroke="currentColor" stroke-width="3" stroke-linecap="round" stroke-linejoin="round"
            class="feather feather-search">
        <circle cx="11" cy="11" r="8"></circle>
        <line x1="21" y1="21" x2="16.65" y2="16.65"></line>
    </symbol>
    <symbol viewBox="0 0 24 24" id="menu" fill="transparent" xmlns="http://www.w3.org/2000/svg">
        <path
                d="M4 8a1 1 0 100-2 1 1 0 000 2zM4 13a1 1 0 100-2 1 1 0 000 2zM4 18a1 1 0 100-2 1 1 0 000 2zM20.06 11H7.94a.94.94 0 00-.94.94v.12c0 .52.42.94.94.94h12.12c.52 0 .94-.42.94-.94v-.12a.94.94 0 00-.94-.94zM20.06 16H7.94a.94.94 0 00-.94.94v.12c0 .52.42.94.94.94h12.12c.52 0 .94-.42.94-.94v-.12a.94.94 0 00-.94-.94zM20.06 6H7.94a.94.94 0 00-.94.94v.12c0 .52.42.94.94.94h12.12c.52 0 .94-.42.94-.94v-.12a.94.94 0 00-.94-.94z"
                fill="currentColor"/>
    </symbol>
    <symbol xmlns="http://www.w3.org/2000/svg" id="clock" viewBox="0 0 24 24" fill="none"
            stroke="currentColor" stroke-width="2" stroke-linecap="round" stroke-linejoin="round"
            class="feather feather-clock">
        <circle cx="12" cy="12" r="10"></circle>
        <polyline points="12 6 12 12 16 14"></polyline>
    </symbol>
    <symbol xmlns="http://www.w3.org/2000/svg" id="heart" viewBox="0 0 24 24"
            stroke="currentColor" stroke-width="2" stroke-linecap="round" stroke-linejoin="round"
            class="feather feather-heart">
        <path
                d="M20.84 4.61a5.5 5.5 0 0 0-7.78 0L12 5.67l-1.06-1.06a5.5 5.5 0 0 0-7.78 7.78l1.06 1.06L12 21.23l7.78-7.78 1.06-1.06a5.5 5.5 0 0 0 0-7.78z"></path>
    </symbol>
    <symbol xmlns="http://www.w3.org/2000/svg" width="24" height="24" viewBox="0 0 24 24" fill="none" id="plus"
            stroke="currentColor" stroke-width="2" stroke-linecap="round" stroke-linejoin="round"
            class="feather feather-plus">
        <line x1="12" y1="5" x2="12" y2="19"></line>
        <line x1="5" y1="12" x2="19" y2="12"></line>
    </symbol>
    <symbol xmlns="http://www.w3.org/2000/svg" id="home" viewBox="0 0 24 24" fill="none" stroke="currentColor"
            stroke-width="2" stroke-linecap="round" stroke-linejoin="round" class="feather feather-home">
        <path d="M3 9l9-7 9 7v11a2 2 0 0 1-2 2H5a2 2 0 0 1-2-2z"></path>
        <polyline points="9 22 9 12 15 12 15 22"></polyline>
    </symbol>
    <symbol xmlns="http://www.w3.org/2000/svg" id="article" viewBox="0 0 24 24" fill="none" stroke="currentColor"
            stroke-width="2" stroke-linecap="round" stroke-linejoin="round" class="feather feather-package">
        <line x1="16.5" y1="9.4" x2="7.5" y2="4.21"></line>
        <path d="M21 16V8a2 2 0 0 0-1-1.73l-7-4a2 2 0 0 0-2 0l-7 4A2 2 0 0 0 3 8v8a2 2 0 0 0 1 1.73l7 4a2 2 0 0 0 2 0l7-4A2 2 0 0 0 21 16z"></path>
        <polyline points="3.27 6.96 12 12.01 20.73 6.96"></polyline>
        <line x1="12" y1="22.08" x2="12" y2="12"></line>
    </symbol>
    <svg xmlns="http://www.w3.org/2000/svg" id="bell" viewBox="0 0 24 24" fill="none" stroke="currentColor"
         stroke-width="2" stroke-linecap="round" stroke-linejoin="round" class="feather feather-bell">
        <path d="M18 8A6 6 0 0 0 6 8c0 7-3 9-3 9h18s-3-2-3-9"></path>
        <path d="M13.73 21a2 2 0 0 1-3.46 0"></path>
    </svg>
    <symbol xmlns="http://www.w3.org/2000/svg" id="category" viewBox="0 0 24 24" fill="none" stroke="currentColor"
            stroke-width="2" stroke-linecap="round" stroke-linejoin="round" class="feather feather-folder-plus">
        <path d="M22 19a2 2 0 0 1-2 2H4a2 2 0 0 1-2-2V5a2 2 0 0 1 2-2h5l2 3h9a2 2 0 0 1 2 2z"></path>
        <line x1="12" y1="11" x2="12" y2="17"></line>
        <line x1="9" y1="14" x2="15" y2="14"></line>
    </symbol>
    <symbol xmlns="http://www.w3.org/2000/svg" id="fournisseur" viewBox="0 0 24 24" fill="none" stroke="currentColor"
            stroke-width="2" stroke-linecap="round" stroke-linejoin="round" class="feather feather-truck">
        <rect x="1" y="3" width="15" height="13"></rect>
        <polygon points="16 8 20 8 23 11 23 16 16 16 16 8"></polygon>
        <circle cx="5.5" cy="18.5" r="2.5"></circle>
        <circle cx="18.5" cy="18.5" r="2.5"></circle>
    </symbol>
    <symbol fill="none" stroke="currentColor" id="cart" viewBox="0 0 36 36" version="1.1"
            preserveAspectRatio="xMidYMid meet" xmlns="http://www.w3.org/2000/svg"
            xmlns:xlink="http://www.w3.org/1999/xlink">
        <circle cx="13.33" cy="29.75" r="2.25" class="clr-i-outline clr-i-outline-path-1"></circle>
        <circle cx="27" cy="29.75" r="2.25" class="clr-i-outline clr-i-outline-path-2"></circle>
        <path d="M33.08,5.37A1,1,0,0,0,32.31,5H11.49l.65,2H31L28.33,19h-15L8.76,4.53a1,1,0,0,0-.66-.65L4,2.62a1,1,0,1,0-.59,1.92L7,5.64l4.59,14.5L9.95,21.48l-.13.13A2.66,2.66,0,0,0,9.74,25,2.75,2.75,0,0,0,12,26H28.69a1,1,0,0,0,0-2H11.84a.67.67,0,0,1-.56-1l2.41-2H29.13a1,1,0,0,0,1-.78l3.17-14A1,1,0,0,0,33.08,5.37Z"
              class="clr-i-outline clr-i-outline-path-3"></path>
    </symbol>
    <symbol xmlns="http://www.w3.org/2000/svg" id="list" viewBox="0 0 24 24" fill="none" stroke="currentColor"
            stroke-width="2" stroke-linecap="round" stroke-linejoin="round" class="feather feather-menu">
        <line x1="3" y1="12" x2="21" y2="12"></line>
        <line x1="3" y1="6" x2="21" y2="6"></line>
        <line x1="3" y1="18" x2="21" y2="18"></line>
    </symbol>
    <symbol xmlns="http://www.w3.org/2000/svg" id="setting" viewBox="0 0 24 24" fill="none" stroke="currentColor"
            stroke-width="2" stroke-linecap="round" stroke-linejoin="round" class="feather feather-settings">
        <circle cx="12" cy="12" r="3"></circle>
        <path d="M19.4 15a1.65 1.65 0 0 0 .33 1.82l.06.06a2 2 0 0 1 0 2.83 2 2 0 0 1-2.83 0l-.06-.06a1.65 1.65 0 0 0-1.82-.33 1.65 1.65 0 0 0-1 1.51V21a2 2 0 0 1-2 2 2 2 0 0 1-2-2v-.09A1.65 1.65 0 0 0 9 19.4a1.65 1.65 0 0 0-1.82.33l-.06.06a2 2 0 0 1-2.83 0 2 2 0 0 1 0-2.83l.06-.06a1.65 1.65 0 0 0 .33-1.82 1.65 1.65 0 0 0-1.51-1H3a2 2 0 0 1-2-2 2 2 0 0 1 2-2h.09A1.65 1.65 0 0 0 4.6 9a1.65 1.65 0 0 0-.33-1.82l-.06-.06a2 2 0 0 1 0-2.83 2 2 0 0 1 2.83 0l.06.06a1.65 1.65 0 0 0 1.82.33H9a1.65 1.65 0 0 0 1-1.51V3a2 2 0 0 1 2-2 2 2 0 0 1 2 2v.09a1.65 1.65 0 0 0 1 1.51 1.65 1.65 0 0 0 1.82-.33l.06-.06a2 2 0 0 1 2.83 0 2 2 0 0 1 0 2.83l-.06.06a1.65 1.65 0 0 0-.33 1.82V9a1.65 1.65 0 0 0 1.51 1H21a2 2 0 0 1 2 2 2 2 0 0 1-2 2h-.09a1.65 1.65 0 0 0-1.51 1z"></path>
    </symbol>
    <symbol xmlns="http://www.w3.org/2000/svg" id="upload" viewBox="0 0 24 24" fill="none" stroke="currentColor"
            stroke-width="2" stroke-linecap="round" stroke-linejoin="round" class="feather feather-upload">
        <path d="M21 15v4a2 2 0 0 1-2 2H5a2 2 0 0 1-2-2v-4"></path>
        <polyline points="17 8 12 3 7 8"></polyline>
        <line x1="12" y1="3" x2="12" y2="15"></line>
    </symbol>
    <symbol xmlns="http://www.w3.org/2000/svg" id="bluetooth" viewBox="0 0 24 24" fill="none" stroke="currentColor" stroke-width="2" stroke-linecap="round" stroke-linejoin="round" class="feather feather-bluetooth"><polyline points="6.5 6.5 17.5 17.5 12 23 12 1 17.5 6.5 6.5 17.5"></polyline></symbol>
    <symbol xmlns="http://www.w3.org/2000/svg" id="save" viewBox="0 0 24 24" fill="none" stroke="currentColor" stroke-width="2" stroke-linecap="round" stroke-linejoin="round" class="feather feather-save"><path d="M19 21H5a2 2 0 0 1-2-2V5a2 2 0 0 1 2-2h11l5 5v11a2 2 0 0 1-2 2z"></path><polyline points="17 21 17 13 7 13 7 21"></polyline><polyline points="7 3 7 8 15 8"></polyline></symbol>
    <symbol xmlns="http://www.w3.org/2000/svg" id="envelop" viewBox="0 0 24 24" fill="none" stroke="currentColor" stroke-width="2" stroke-linecap="round" stroke-linejoin="round" class="feather feather-mail"><path d="M4 4h16c1.1 0 2 .9 2 2v12c0 1.1-.9 2-2 2H4c-1.1 0-2-.9-2-2V6c0-1.1.9-2 2-2z"></path><polyline points="22,6 12,13 2,6"></polyline></symbol>
    <symbol xmlns="http://www.w3.org/2000/svg" id="eye" viewBox="0 0 24 24" fill="none" stroke="currentColor" stroke-width="2" stroke-linecap="round" stroke-linejoin="round" class="feather feather-eye"><path d="M1 12s4-8 11-8 11 8 11 8-4 8-11 8-11-8-11-8z"></path><circle cx="12" cy="12" r="3"></circle></symbol>

    <symbol id="chart" xmlns="http://www.w3.org/2000/svg" viewBox="0 0 24 24" fill="none" stroke="currentColor"
         stroke-width="2" stroke-linecap="round" stroke-linejoin="round" class="feather feather-bar-chart-2">
        <line x1="18" y1="20" x2="18" y2="10"></line>
        <line x1="12" y1="20" x2="12" y2="4"></line>
        <line x1="6" y1="20" x2="6" y2="14"></line>
    </symbol>
</svg>